<mxfile host="app.diagrams.net" agent="Mozilla/5.0 (Windows NT 10.0; Win64; x64) AppleWebKit/537.36 (KHTML, like Gecko) Chrome/137.0.0.0 Safari/537.36 Edg/137.0.0.0" version="27.2.0">
  <diagram name="第 1 页" id="94atwDYx0tnbWcTaVONh">
    <mxGraphModel dx="1971" dy="1114" grid="1" gridSize="10" guides="1" tooltips="1" connect="1" arrows="1" fold="1" page="1" pageScale="1" pageWidth="827" pageHeight="1169" math="0" shadow="0">
      <root>
        <mxCell id="0" />
        <mxCell id="1" parent="0" />
        <mxCell id="5Bq08Rg5JXSJL_3d3jPr-4" value="" style="edgeStyle=orthogonalEdgeStyle;rounded=0;orthogonalLoop=1;jettySize=auto;html=1;" edge="1" parent="1" source="5Bq08Rg5JXSJL_3d3jPr-2" target="5Bq08Rg5JXSJL_3d3jPr-3">
          <mxGeometry relative="1" as="geometry" />
        </mxCell>
        <mxCell id="5Bq08Rg5JXSJL_3d3jPr-2" value="" style="ellipse;whiteSpace=wrap;html=1;aspect=fixed;" vertex="1" parent="1">
          <mxGeometry x="120" y="390" width="80" height="80" as="geometry" />
        </mxCell>
        <mxCell id="5Bq08Rg5JXSJL_3d3jPr-8" style="edgeStyle=orthogonalEdgeStyle;rounded=0;orthogonalLoop=1;jettySize=auto;html=1;exitX=0.5;exitY=0;exitDx=0;exitDy=0;entryX=0;entryY=0.5;entryDx=0;entryDy=0;" edge="1" parent="1" source="5Bq08Rg5JXSJL_3d3jPr-3" target="5Bq08Rg5JXSJL_3d3jPr-6">
          <mxGeometry relative="1" as="geometry" />
        </mxCell>
        <mxCell id="5Bq08Rg5JXSJL_3d3jPr-3" value="" style="whiteSpace=wrap;html=1;aspect=fixed;" vertex="1" parent="1">
          <mxGeometry x="300" y="390" width="80" height="80" as="geometry" />
        </mxCell>
        <mxCell id="5Bq08Rg5JXSJL_3d3jPr-6" value="" style="whiteSpace=wrap;html=1;aspect=fixed;" vertex="1" parent="1">
          <mxGeometry x="450" y="250" width="80" height="80" as="geometry" />
        </mxCell>
      </root>
    </mxGraphModel>
  </diagram>
</mxfile>
